<?xml version="1.0" encoding="UTF-8"?>
<svg id="Layer_1" xmlns="http://www.w3.org/2000/svg" version="1.1" viewBox="0 0 100 100">
  <!-- Generator: Adobe Illustrator 29.7.1, SVG Export Plug-In . SVG Version: 2.1.1 Build 8)  -->
  <defs>
    <style>
      .st0 {
        fill: #009245;
        stroke: #000;
        stroke-miterlimit: 10;
        stroke-width: 2px;
      }
    </style>
  </defs>
  <circle class="st0" cx="50" cy="50" r="47.5"/>
  <path d="M33.33,22.92h14.58v11.46c0,5.18,4.19,9.38,9.38,9.38h11.46v31.25c0,1.15-.94,2.08-2.08,2.08h-33.33c-1.15,0-2.08-.94-2.08-2.08V25c0-1.15.94-2.08,2.08-2.08ZM54.17,25.51l11.99,11.99h-8.87c-1.73,0-3.12-1.39-3.12-3.12v-8.87ZM33.33,16.67c-4.6,0-8.33,3.74-8.33,8.33v50c0,4.6,3.74,8.33,8.33,8.33h33.33c4.6,0,8.33-3.74,8.33-8.33v-34.05c0-2.21-.87-4.34-2.43-5.9l-15.96-15.95c-1.56-1.56-3.67-2.43-5.89-2.43h-17.38ZM40.62,50c-1.73,0-3.12,1.39-3.12,3.12s1.39,3.12,3.12,3.12h18.75c1.73,0,3.12-1.39,3.12-3.12s-1.39-3.12-3.12-3.12h-18.75ZM40.62,62.5c-1.73,0-3.12,1.39-3.12,3.12s1.39,3.12,3.12,3.12h18.75c1.73,0,3.12-1.39,3.12-3.12s-1.39-3.12-3.12-3.12h-18.75Z"/>
</svg>