<?xml version="1.0" encoding="UTF-8"?>
<svg id="Layer_1" xmlns="http://www.w3.org/2000/svg" version="1.1" viewBox="0 0 100 100">
  <!-- Generator: Adobe Illustrator 29.7.1, SVG Export Plug-In . SVG Version: 2.1.1 Build 8)  -->
  <defs>
    <style>
      .st0 {
        fill: #fcee21;
        stroke: #000;
        stroke-miterlimit: 10;
        stroke-width: 2px;
      }

      .st1 {
        fill: #fff;
      }
    </style>
  </defs>
  <circle class="st0" cx="50" cy="50" r="47.5"/>
  <g>
    <g>
      <path class="st1" d="M56.96,55.29c.34,1.95-.96,3.81-2.91,4.15h0c-1.95.34-3.81-.96-4.15-2.91l-6.38-36.33c-.34-1.95.96-3.81,2.91-4.15h0c1.95-.34,3.81.96,4.15,2.91l6.38,36.33Z"/>
      <path d="M53.42,60.38c-.91,0-1.8-.28-2.56-.81-.98-.69-1.63-1.71-1.84-2.89l-6.38-36.33c-.21-1.18.06-2.36.74-3.34.69-.98,1.71-1.63,2.89-1.84,1.18-.21,2.36.06,3.34.74.98.69,1.63,1.71,1.84,2.89l6.38,36.33c.21,1.18-.06,2.36-.74,3.34-.69.98-1.71,1.63-2.89,1.84-.26.05-.52.07-.78.07ZM47.06,16.88c-.16,0-.31.01-.47.04-1.46.26-2.45,1.66-2.19,3.12l6.38,36.33c.12.71.52,1.33,1.11,1.74.59.41,1.31.57,2.01.45.71-.12,1.33-.52,1.74-1.11.41-.59.57-1.3.45-2.01h0l-6.38-36.33c-.12-.71-.52-1.33-1.11-1.74-.46-.32-.99-.49-1.54-.49Z"/>
    </g>
    <g>
      <path class="st1" d="M35.45,46.92v12.21c.01,1.82.31,3.52.71,4.97,1.1,4.04,1.71,6.82,1.89,10.52.07,1.37.02,2.75-.13,4.11v.04c-.13,1.19.48,2.35,1.61,2.98,1.84,1.03,5.25,2.29,10.9,2.26,5.98-.02,9.21-1.58,10.79-2.75.83-.61,1.31-1.51,1.3-2.47v-.02c.23-1.88.4-5.5,2.4-8.67.89-1.42,1.41-3.03,1.41-4.7v-7.59l-30.88-10.9Z"/>
      <path d="M50.29,84.9c-5.74,0-9.25-1.29-11.19-2.38-1.42-.79-2.23-2.3-2.07-3.85,0-.02,0-.07.01-.08.14-1.3.18-2.64.12-3.93-.18-3.61-.76-6.31-1.86-10.33-.48-1.76-.73-3.51-.74-5.2v-12.21c0-.49.39-.89.88-.89h0c.49,0,.89.4.89.89v12.21c.01,1.53.24,3.12.68,4.73,1.13,4.15,1.74,6.95,1.92,10.71.07,1.38.03,2.81-.13,4.25,0,.01,0,.06-.01.08-.08.81.36,1.61,1.17,2.06,1.76.99,4.97,2.15,10.32,2.15h.14c5.93-.02,8.98-1.62,10.26-2.57.6-.44.94-1.08.94-1.75,0-.04,0-.09,0-.13.03-.22.05-.45.08-.71.22-2,.58-5.34,2.44-8.32.83-1.33,1.27-2.79,1.27-4.23v-7.59c0-.49.4-.89.89-.89s.89.4.89.89v7.59c0,1.77-.53,3.56-1.54,5.17-1.65,2.63-1.97,5.6-2.18,7.57-.03.25-.05.48-.08.69-.01,1.24-.62,2.38-1.67,3.15-1.78,1.32-5.19,2.9-11.31,2.92h-.14Z"/>
    </g>
    <g>
      <path class="st1" d="M64.83,19.57c-.65-.66-1.55-1.07-2.54-1.07-1.94,0-3.51,1.59-3.57,3.57l-2,25.53,7.17.55,2-25.97c0-1.02-.41-1.93-1.06-2.6Z"/>
      <path d="M63.88,49.03c-.49,0-.89-.4-.89-.89l2-25.97c0-.74-.29-1.45-.81-1.98-.51-.51-1.18-.8-1.89-.8h0c-1.46,0-2.64,1.19-2.68,2.7l-2,25.5c0,.49-.4.89-.89.89s-.89-.4-.89-.89l2-25.53c.07-2.5,2.03-4.45,4.45-4.45,1.19-.01,2.32.47,3.18,1.33.85.87,1.31,2.01,1.32,3.22l-2,25.98c0,.49-.4.89-.89.89Z"/>
    </g>
    <path d="M48.22,71.04c-.49,0-.89-.4-.89-.89,0-6.21,1.41-10.75,4.19-13.5,2.58-2.55,5.39-2.53,5.5-2.54.49,0,.88.41.88.9,0,.49-.4.88-.89.88h0c-.34,0-7.9.18-7.9,14.26,0,.49-.4.89-.89.89Z"/>
    <g>
      <path class="st1" d="M39.28,57.68c-1.9.34-3.72-.93-4.05-2.83l-1.53-8.64c-.34-1.9.93-3.72,2.83-4.05h0c1.9-.34,3.72.93,4.05,2.83l1.53,8.64c.34,1.9-.93,3.72-2.83,4.05h0Z"/>
      <path d="M38.67,58.62c-2.09,0-3.94-1.5-4.32-3.62l-1.53-8.64c-.2-1.15.05-2.32.72-3.28.67-.96,1.68-1.6,2.83-1.81,1.15-.21,2.32.05,3.28.72.96.67,1.6,1.68,1.81,2.83l1.53,8.64c.2,1.15-.05,2.32-.72,3.28-.67.96-1.68,1.6-2.83,1.81-.26.05-.51.07-.77.07ZM37.15,42.99c-.15,0-.31.01-.46.04-.69.12-1.28.5-1.68,1.07-.4.57-.55,1.26-.43,1.95l1.53,8.64c.25,1.41,1.61,2.36,3.02,2.11.69-.12,1.28-.5,1.68-1.07.4-.57.55-1.26.43-1.95l-1.53-8.64c-.12-.69-.5-1.28-1.07-1.68-.44-.31-.96-.47-1.49-.47Z"/>
    </g>
    <g>
      <path class="st1" d="M43.14,38.88c-1.95.35-3.25,2.2-2.9,4.15l2.32,13.09c.35,1.95,2.2,3.25,4.15,2.9h0c1.95-.35,3.25-2.2,2.9-4.15l-2.32-13.09c-.35-1.95-2.2-3.25-4.15-2.9h0Z"/>
      <path d="M46.07,59.97c-.91,0-1.79-.28-2.55-.81-.98-.68-1.63-1.71-1.84-2.88l-2.32-13.09c-.43-2.43,1.19-4.75,3.62-5.18h0c2.43-.43,4.75,1.19,5.18,3.62l2.32,13.09c.21,1.18-.05,2.36-.74,3.34-.68.98-1.71,1.63-2.88,1.84-.26.05-.53.07-.79.07ZM43.29,39.75c-1.46.26-2.44,1.66-2.18,3.12l2.32,13.09c.13.71.52,1.32,1.11,1.74.59.41,1.3.57,2.01.44.71-.13,1.33-.52,1.74-1.11.41-.59.57-1.3.44-2.01l-2.32-13.09c-.26-1.46-1.66-2.44-3.12-2.18h0Z"/>
    </g>
    <g>
      <path class="st1" d="M60.84,47.59h-9.24c-2.6,0-3.93,1.75-3.93,3.89,0,1.58,1.26,3.59,4.1,3.59h5.31l3.75,2.94,5.48-.2c.04-6.06.57-10.22-5.48-10.22Z"/>
      <path d="M60.84,58.9c-.19,0-.39-.06-.55-.19l-3.51-2.75h-5.01c-3.24,0-4.99-2.31-4.99-4.48,0-2.86,1.94-4.78,4.82-4.78h9.24c2.16,0,3.7.51,4.73,1.55,1.74,1.76,1.7,4.64,1.65,8.29,0,.42-.01.84-.01,1.28,0,.49-.4.88-.89.88h0c-.49,0-.89-.4-.88-.9,0-.44,0-.87.01-1.29.04-3.23.08-5.78-1.14-7.02-.68-.69-1.81-1.02-3.47-1.02h-9.24c-1.9,0-3.04,1.12-3.04,3,0,1.08.86,2.7,3.21,2.7h5.31c.2,0,.39.07.55.19l3.75,2.94c.39.3.46.86.15,1.25-.18.22-.44.34-.7.34Z"/>
    </g>
  </g>
</svg>