<?xml version="1.0" encoding="UTF-8"?>
<svg id="Layer_1" xmlns="http://www.w3.org/2000/svg" version="1.1" viewBox="0 0 100 100">
  <!-- Generator: Adobe Illustrator 29.7.1, SVG Export Plug-In . SVG Version: 2.1.1 Build 8)  -->
  <defs>
    <style>
      .st0 {
        fill: #fff;
      }

      .st1 {
        fill: #009245;
        stroke: #000;
        stroke-miterlimit: 10;
        stroke-width: 2px;
      }
    </style>
  </defs>
  <circle class="st1" cx="50" cy="50" r="47.5"/>
  <g>
    <path class="st0" d="M70.7,36.66c-2.55-.85-5.27,3.06-5.96,4.09l-3.31,6.27.33-24.75c0-1.02-.38-1.94-1.02-2.61-.65-.67-1.54-1.09-2.53-1.1-1.94-.02-3.53,1.55-3.62,3.52l.05-3.85c.03-1.98-1.56-3.61-3.54-3.63-1.98-.03-3.61,1.56-3.63,3.54l-.04,2.84c.03-1.98-1.56-3.61-3.54-3.63-1.98-.03-3.54,1.58-3.57,3.56l-.14,10.79c-.1-1.86-1.61-3.36-3.48-3.38-1.95-.03-3.49,1.58-3.52,3.56l-.2,14.78-.18,13.67c-.02,1.82.26,3.52.64,4.98,1.05,4.06,1.62,6.84,1.75,10.55.05,1.37-.01,2.75-.18,4.11v.04c-.15,1.18.45,2.36,1.57,3,1.83,1.06,5.22,2.36,10.86,2.41,5.98.06,9.23-1.46,10.82-2.6.84-.59,1.33-1.5,1.33-2.45v-.02c.31-2.25.56-6.99,3.94-10.44,3.59-3.81,3.25-13.79,4.06-16.76l5.15-11.43c.75-1.74.68-4.12-2.07-5.04Z"/>
    <path d="M62.65,22.29l-.28,21.06,1.58-3.01s.03-.05.05-.08c1.38-2.07,4.13-5.4,6.98-4.44,1.66.55,2.41,1.56,2.74,2.3.51,1.14.46,2.57-.13,3.94l-5.12,11.37c-.2.79-.33,2.17-.49,3.76-.42,4.38-1,10.37-3.77,13.31-2.85,2.91-3.33,6.85-3.62,9.21-.03.25-.06.48-.09.69-.03,1.24-.65,2.37-1.71,3.13-1.8,1.29-5.23,2.83-11.35,2.77-.05,0-.1,0-.14,0-5.74-.08-9.23-1.41-11.16-2.53-1.41-.8-2.2-2.33-2.02-3.88,0-.01.01-.07.01-.08.16-1.3.22-2.64.17-3.92-.13-3.61-.68-6.32-1.72-10.36-.46-1.77-.68-3.52-.67-5.21l.38-28.46c.03-2.48,2.02-4.47,4.42-4.44.99.01,1.89.35,2.62.92l.1-7.44c.03-2.48,2.04-4.47,4.47-4.44,1.04.01,1.98.38,2.74.98.36-2.14,2.24-3.75,4.47-3.72,2.47.03,4.45,2.07,4.41,4.53v.31c.75-.56,1.68-.89,2.68-.88,1.17,0,2.32.5,3.16,1.37,0,0,1.3,1.16,1.27,3.24ZM36.7,29.19c-1.45-.02-2.6,1.16-2.62,2.68l-.38,28.45c-.01,1.53.19,3.12.61,4.74,1.07,4.16,1.64,6.97,1.78,10.74.05,1.38-.01,2.81-.19,4.25,0,.01-.01.06-.01.08-.1.81.34,1.62,1.14,2.08,1.75,1.01,4.94,2.22,10.29,2.29.05,0,.09,0,.14,0,5.93.06,9-1.5,10.3-2.43.61-.43.96-1.06.96-1.74,0-.04,0-.09,0-.13.03-.22.06-.45.09-.71.31-2.58.84-6.9,4.1-10.23,2.34-2.49,2.88-8.13,3.28-12.25.17-1.79.31-3.2.56-4.12.01-.05.03-.09.05-.13l5.15-11.43c.39-.9.44-1.81.14-2.49-.27-.61-.83-1.06-1.68-1.34-1.47-.49-3.49,1.58-4.91,3.7l-6.28,11.94c-.13.25-.37.42-.64.46-.35.06-8.63,1.68-8.82,15.5,0,.49-.41.88-.9.88-.49,0-.88-.41-.88-.9.18-13.68,7.87-16.6,9.85-17.13l2.71-5.14.33-24.55c0-.74-.27-1.45-.78-1.99-.5-.52-1.17-.81-1.88-.82,0,0,0,0,0,0-1.46-.01-2.65,1.15-2.72,2.65l-.33,24.84c0,.49-.41.88-.9.88-.49,0-.88-.41-.88-.9l.38-28.7c.02-1.49-1.17-2.71-2.66-2.73-1.49-.02-2.71,1.17-2.73,2.66l-.38,28.7c0,.49-.41.88-.9.88-.49,0-.88-.41-.88-.9l.35-25.87c.02-1.49-1.17-2.71-2.66-2.73-1.47-.02-2.65,1.16-2.67,2.68l-.14,10.7c0,.11,0,.22,0,.33l-.2,14.81c0,.49-.41.88-.9.88,0,0,0,0,0,0-.49,0-.88-.41-.88-.9l.19-15.07c-.11-1.37-1.23-2.45-2.6-2.47Z"/>
  </g>
</svg>