<?xml version="1.0" encoding="UTF-8"?>
<svg id="Layer_1" xmlns="http://www.w3.org/2000/svg" version="1.1" viewBox="0 0 100 100">
  <!-- Generator: Adobe Illustrator 29.7.1, SVG Export Plug-In . SVG Version: 2.1.1 Build 8)  -->
  <defs>
    <style>
      .st0 {
        fill: #f5b700;
        stroke: #000;
        stroke-miterlimit: 10;
        stroke-width: 2px;
      }
    </style>
  </defs>
  <rect class="st0" x="5" y="5" width="90" height="90"/>
  <path d="M63.25,17.89l-6.14,6.14,18.85,18.85,6.14-6.14c1.86-1.85,2.9-4.36,2.9-6.99s-1.04-5.14-2.9-6.99l-4.88-4.88c-1.85-1.86-4.36-2.9-6.99-2.9s-5.14,1.04-6.99,2.9ZM52.47,28.67l-29.42,29.41c-1.46,1.46-2.53,3.3-3.09,5.29l-4.84,17.47c-.31,1.13,0,2.37.85,3.2.85.83,2.06,1.16,3.2.85l17.47-4.85c2-.56,3.81-1.61,5.29-3.09l29.4-29.42-18.85-18.85Z"/>
</svg>