<?xml version="1.0" encoding="UTF-8"?>
<svg id="Layer_1" xmlns="http://www.w3.org/2000/svg" version="1.1" viewBox="0 0 100 100">
  <!-- Generator: Adobe Illustrator 29.7.1, SVG Export Plug-In . SVG Version: 2.1.1 Build 8)  -->
  <defs>
    <style>
      .st0 {
        fill: #fff;
      }

      .st1 {
        fill: blue;
        stroke: #000;
        stroke-miterlimit: 10;
        stroke-width: 2px;
      }
    </style>
  </defs>
  <circle class="st1" cx="50" cy="50" r="47.5"/>
  <g>
    <path class="st0" d="M70.13,63.69c1.98,0,3.58-1.6,3.58-3.58h0c0-1.98-1.6-3.58-3.58-3.58h-4.26s6.58,0,6.58,0c1.91-.14,3.51-1.55,3.51-3.53,0-.99-.4-1.88-1.05-2.53-.65-.65-1.54-1.05-2.53-1.05h-6.51s6.51,0,6.51,0c1.98,0,3.58-1.6,3.58-3.58h0c0-1.98-1.6-3.58-3.58-3.58h-14.34c-1.32-1.1-2.38-1.76-2.38-1.76l3.21-13.92c.5-2.45.07-4.45-2.77-5.13-2.37-.57-4.42.8-5.01,3.35l-2.62,10.31c-1.27,3.19-4.53,2.83-10.27,8.56-3.48,1.63-6.02.3-8.39.63h-.02c-1,.02-1.97.52-2.62,1.37-1.26,1.62-2.97,4.92-3.12,10.95-.15,5.7,1.09,9.12,2.14,10.95.63,1.13,1.84,1.72,3.09,1.57h.04c1.43-.19,2.88-.27,4.32-.23,3.88.1,6.72.3,10.93,1.32,1.51.37,3.43.48,5.35.44h18.22c1.93,0,3.5-1.57,3.5-3.5h0c0-1.93-1.57-3.5-3.5-3.5h-2.26,4.26Z"/>
    <path d="M49.26,71.58c-1.96,0-3.61-.16-4.9-.48-4.01-.97-6.66-1.19-10.74-1.3-1.35-.03-2.76.03-4.18.21-1.66.2-3.22-.58-4.02-2.01-1.11-1.95-2.4-5.52-2.25-11.41.16-6.18,1.89-9.65,3.31-11.48.81-1.06,2-1.68,3.27-1.71.91-.12,1.8-.03,2.74.07,1.58.16,3.22.33,5.2-.55,2.84-2.81,5.11-4.18,6.77-5.19,1.63-.99,2.63-1.59,3.17-2.9l2.6-10.25c.35-1.51,1.18-2.74,2.35-3.46,1.08-.67,2.41-.86,3.74-.54,2.97.71,4.12,2.79,3.43,6.17l-3.08,13.34c.4.28,1.01.71,1.69,1.27h14.02c2.46,0,4.47,2.01,4.47,4.47,0,1.46-.71,2.76-1.8,3.58.17.13.33.27.49.42.84.84,1.31,1.97,1.31,3.16,0,2-1.36,3.68-3.3,4.24.66.78,1.05,1.78,1.05,2.88,0,1.99-1.31,3.68-3.1,4.26.64.76,1.03,1.75,1.03,2.82,0,2.42-1.97,4.39-4.39,4.39h-18.23c-.22,0-.44,0-.66,0ZM32.9,68.01c.26,0,.51,0,.76.01,4.12.11,6.97.34,11.12,1.35,1.27.31,3.04.46,5.12.42h18.24c1.44,0,2.61-1.17,2.61-2.61s-1.17-2.61-2.61-2.61h-2.26c-.49,0-.89-.4-.89-.89s.4-.89.89-.89h4.26c1.48,0,2.69-1.21,2.69-2.69s-1.21-2.69-2.69-2.69h-4.26c-.49,0-.89-.4-.89-.89s.4-.89.89-.89h6.54c1.32-.11,2.65-1.05,2.65-2.64,0-.72-.28-1.39-.79-1.9-.51-.51-1.19-.79-1.9-.79h-6.51c-.49,0-.89-.4-.89-.89s.4-.89.89-.89h6.5s0,0,0,0c1.48,0,2.69-1.21,2.69-2.69s-1.21-2.69-2.69-2.69h-14.34c-.21,0-.41-.07-.57-.2-1.25-1.04-2.28-1.69-2.29-1.69-.32-.2-.48-.58-.39-.95l3.21-13.92c.49-2.4-.12-3.59-2.11-4.07-.88-.21-1.7-.1-2.39.32-.76.47-1.31,1.31-1.55,2.36l-2.62,10.33s-.02.07-.04.11c-.76,1.9-2.15,2.75-3.92,3.82-1.7,1.03-3.81,2.31-6.55,5.04-.07.07-.16.13-.25.18-2.49,1.16-4.59.95-6.27.77-.85-.09-1.65-.17-2.37-.07-.04,0-.08,0-.12,0-.74.01-1.44.39-1.93,1.02-1.03,1.33-2.78,4.44-2.94,10.43-.14,5.48,1.02,8.73,2.02,10.49.45.81,1.3,1.24,2.21,1.12,1.28-.16,2.52-.24,3.73-.24Z"/>
  </g>
</svg>