<?xml version="1.0" encoding="UTF-8"?>
<svg id="Layer_1" xmlns="http://www.w3.org/2000/svg" version="1.1" viewBox="0 0 100 100">
  <!-- Generator: Adobe Illustrator 29.7.1, SVG Export Plug-In . SVG Version: 2.1.1 Build 8)  -->
  <defs>
    <style>
      .st0 {
        fill: #fff;
      }

      .st1 {
        fill: red;
        stroke: #000;
        stroke-miterlimit: 10;
        stroke-width: 2px;
      }
    </style>
  </defs>
  <polygon class="st1" points="68.18 6.12 31.82 6.12 6.12 31.82 6.12 68.18 31.82 93.88 68.18 93.88 93.88 68.18 93.88 31.82 68.18 6.12"/>
  <g>
    <polygon class="st0" points="80.14 27.55 79.94 26.82 64.21 25.25 52.41 18.96 47.69 17.38 38.25 18.17 30.38 18.96 24.41 18.4 23.3 22.89 23.3 31.04 24.23 34.04 26.45 33.9 32.74 33.12 35.89 33.12 38.25 33.9 41.4 34.69 43.76 34.69 46.9 33.12 48.48 32.33 53.98 32.33 55.56 32.33 58.24 29.79 61.85 29.18 72.86 29.18 78.72 29.59 80.73 29.18 80.14 27.55"/>
    <polygon class="st0" points="54.44 32.88 55.16 33.08 56.74 48.82 63.03 60.62 64.6 65.34 63.82 74.78 63.03 82.64 63.59 88.61 59.1 89.72 50.94 89.72 47.95 88.79 48.08 86.58 48.87 80.28 48.87 77.14 48.08 74.78 47.3 71.63 47.3 69.27 48.87 66.12 49.66 64.55 49.66 59.04 49.66 57.47 52.2 54.78 52.8 51.18 52.8 40.16 52.39 34.3 52.8 32.3 54.44 32.88"/>
    <path d="M80.49,26.37c1.6.56.89,1.28.58,2.58-.48,2.02-1.84,1.56-3.56,1.49l-16.19-.44-2.99.05c-.05.67-.36,1.33-.85,1.83-.44.44-1.24.99-2.53.95l-6.54.24-1.43.91c-3.18,2.01-7.1,2.14-10.25.32-.08-.05-.16-.09-.24-.14-5.72-.62-8.87.23-10.57.68-.34.09-.61.17-.85.21-.32.06-.93.05-1.44-.73-1.64-2.52-1.47-13.18.25-15.62.54-.76,1.15-.75,1.47-.68.55.13,1.3.31,1.96.39,3.1.4,6.1.26,8.92-.4l.09-.02c1.67-.39,3.38-.59,5.09-.59h5.45c3.1,0,5.53,1.24,8.15,2.75l9.18,4.65M79.11,29.23c.84-.14,1.55-1.58.22-1.61l-14.92-1.41c-.24-.03-.47-.09-.69-.18l-9.34-4.79c-2.46-1.41-4.73-2.58-7.52-2.58h-5.42c-1.63,0-3.25.19-4.83.56l-.09.02c-2.97.7-6.12.84-9.37.43-.72-.09-1.51-.28-2.08-.41-.38.16-1.19,2.38-1.29,6.96-.11,4.89.67,7.39,1.1,7.58.16-.04.41-.11.73-.2,1.79-.48,5.13-1.38,11.19-.7.1.01.19.04.28.1.1.06.21.13.31.19,2.73,1.58,6.15,1.47,8.93-.29l1.58-1c.1-.06.2-.09.32-.1l6.75-.24c.7,0,1.26-.19,1.63-.57.3-.3.48-.73.49-1.13,0-.22-.02-.43-.06-.61-.02-.04-.03-.09-.04-.14-.24-.75-.88-1.19-1.82-1.2l-6.09-.09h-6.7c-.35,0-.64-.29-.64-.64s.29-.64.64-.64h6.71l6.1.09c1.44.02,2.52.75,2.96,1.92M62.37,28.53"/>
    <path d="M55.88,32.62c-.56-1.6-1.28-.89-2.58-.58-2.02.48-1.56,1.84-1.49,3.56l.44,16.19-.05,2.99c-.67.05-1.33.36-1.83.85-.44.44-.99,1.24-.95,2.53l-.24,6.54-.91,1.43c-2.01,3.18-2.14,7.1-.32,10.25.05.08.09.16.14.24.62,5.72-.23,8.87-.68,10.57-.09.34-.17.61-.21.85-.06.32-.05.93.73,1.44,2.52,1.64,13.18,1.47,15.62-.25.76-.54.75-1.15.68-1.47-.13-.55-.31-1.3-.39-1.96-.4-3.1-.26-6.1.4-8.92l.02-.09c.39-1.67.59-3.38.59-5.09v-5.45c0-3.1-1.24-5.53-2.75-8.15l-4.65-9.18M53.03,34.01c.14-.84,1.58-1.55,1.61-.22l1.41,14.92c.03.24.09.47.18.69l4.79,9.34c1.41,2.46,2.58,4.73,2.58,7.52v5.42c0,1.63-.19,3.25-.56,4.83l-.02.09c-.7,2.97-.84,6.12-.43,9.37.09.72.28,1.51.41,2.08-.16.38-2.38,1.19-6.96,1.29-4.89.11-7.39-.67-7.58-1.1.04-.16.11-.41.2-.73.48-1.79,1.38-5.13.7-11.19-.01-.1-.04-.19-.1-.28-.06-.1-.13-.21-.19-.31-1.58-2.73-1.47-6.15.29-8.93l1-1.58c.06-.1.09-.2.1-.32l.24-6.75c0-.7.19-1.26.57-1.63.3-.3.73-.48,1.13-.49.22,0,.43.02.61.06.04.02.09.03.14.04.75.24,1.19.88,1.2,1.82l.09,6.09v6.7c0,.35.29.64.64.64s.64-.29.64-.64v-6.71s-.09-6.1-.09-6.1c-.02-1.44-.75-2.52-1.92-2.96M53.73,50.75"/>
  </g>
</svg>