<svg xmlns="http://www.w3.org/2000/svg" version="1.1" xmlns:xlink="http://www.w3.org/1999/xlink" width="100" height="100"><svg xmlns="http://www.w3.org/2000/svg" version="1.1" xmlns:xlink="http://www.w3.org/1999/xlink" width="100" height="100"><svg id="Layer_1" xmlns="http://www.w3.org/2000/svg" version="1.1" viewBox="0 0 100 100">
  <!-- Generator: Adobe Illustrator 29.7.1, SVG Export Plug-In . SVG Version: 2.1.1 Build 8)  -->
  <defs>
    <style>
      .st0 {
        fill: #f5b700;
        stroke: #000;
        stroke-miterlimit: 10;
        stroke-width: 2px;
      }
    </style>
  </defs>
  <circle class="st0" cx="50" cy="50" r="47.5"></circle>
  <g>
    <path d="M50,21.19c.66,0,1.2-.54,1.2-1.2v-9.39c0-.66-.54-1.2-1.2-1.2s-1.2.54-1.2,1.2v9.39c0,.66.54,1.2,1.2,1.2Z"></path>
    <path d="M35.51,24.19c.22.39.63.6,1.04.6.2,0,.41-.05.6-.16.58-.33.77-1.07.44-1.64l-4.7-8.14c-.33-.58-1.07-.77-1.64-.44-.58.33-.77,1.07-.44,1.64l4.7,8.14Z"></path>
    <path d="M17.96,29.78l8.14,4.7c.19.11.4.16.6.16.42,0,.82-.22,1.04-.6.33-.58.14-1.31-.44-1.64l-8.14-4.7c-.58-.33-1.31-.14-1.64.44-.33.58-.14,1.31.44,1.64Z"></path>
    <path d="M24.3,46.89c0-.66-.54-1.2-1.2-1.2h-9.39c-.66,0-1.2.54-1.2,1.2s.54,1.2,1.2,1.2h9.39c.66,0,1.2-.54,1.2-1.2Z"></path>
    <path d="M26.1,59.3l-8.14,4.7c-.58.33-.77,1.07-.44,1.64.22.39.63.6,1.04.6.2,0,.41-.05.6-.16l8.14-4.7c.58-.33.77-1.07.44-1.64-.33-.58-1.07-.77-1.64-.44Z"></path>
    <path d="M82.04,63.99l-8.14-4.7c-.58-.33-1.31-.14-1.64.44-.33.58-.14,1.31.44,1.64l8.14,4.7c.19.11.4.16.6.16.42,0,.82-.22,1.04-.6.33-.58.14-1.31-.44-1.64Z"></path>
    <path d="M86.3,45.68h-9.39c-.66,0-1.2.54-1.2,1.2s.54,1.2,1.2,1.2h9.39c.66,0,1.2-.54,1.2-1.2s-.54-1.2-1.2-1.2Z"></path>
    <path d="M73.3,34.64c.2,0,.41-.05.6-.16l8.14-4.7c.58-.33.77-1.07.44-1.64-.33-.58-1.07-.77-1.64-.44l-8.14,4.7c-.58.33-.77,1.07-.44,1.64.22.39.63.6,1.04.6Z"></path>
    <path d="M62.85,24.63c.19.11.4.16.6.16.42,0,.82-.22,1.04-.6l4.7-8.14c.33-.58.14-1.31-.44-1.64-.58-.33-1.31-.14-1.64.44l-4.7,8.14c-.33.58-.14,1.31.44,1.64Z"></path>
    <path d="M70.73,38.13c-1.13-2.68-2.76-5.09-4.82-7.15-2.07-2.07-4.47-3.69-7.15-4.82-2.77-1.17-5.72-1.77-8.76-1.77s-5.98.6-8.76,1.77c-2.68,1.13-5.09,2.76-7.15,4.82-2.07,2.07-3.69,4.47-4.82,7.15-1.17,2.77-1.77,5.72-1.77,8.76,0,3.26.68,6.41,2.03,9.36,1.3,2.84,3.15,5.35,5.5,7.44,2.14,1.91,3.37,4.68,3.37,7.59v1.51c0,2.47,2.01,4.48,4.48,4.48h14.25c2.47,0,4.48-2.01,4.48-4.48v-1.51c0-2.92,1.23-5.69,3.37-7.59,2.34-2.09,4.19-4.59,5.5-7.44,1.35-2.95,2.03-6.09,2.03-9.36,0-3.04-.6-5.98-1.77-8.76ZM63.37,61.89c-2.65,2.36-4.17,5.79-4.17,9.39v1.51c0,1.14-.93,2.07-2.07,2.07h-14.25c-1.14,0-2.07-.93-2.07-2.07v-1.51c0-3.6-1.52-7.03-4.17-9.39-4.27-3.81-6.72-9.28-6.72-15,0-11.08,9.01-20.09,20.09-20.09s20.09,9.01,20.09,20.09c0,5.72-2.45,11.19-6.72,15Z"></path>
    <path d="M42.28,30.13c-1.97.91-3.76,2.16-5.32,3.72-1.66,1.66-2.97,3.58-3.89,5.71-.23.53.01,1.15.55,1.38.14.06.28.09.42.09.41,0,.79-.24.97-.63.82-1.88,1.98-3.59,3.45-5.06,1.38-1.38,2.97-2.49,4.71-3.29.53-.24.76-.87.51-1.4-.24-.53-.87-.76-1.4-.51Z"></path>
    <path d="M33.01,43.03c-.57-.09-1.11.3-1.21.87-.03.19-.06.38-.08.57-.07.58.33,1.1.91,1.18.05,0,.09,0,.14,0,.52,0,.97-.39,1.04-.92.02-.17.05-.34.07-.51.09-.57-.3-1.11-.87-1.21Z"></path>
    <path d="M58.48,79.26h-16.97c-.66,0-1.2.54-1.2,1.2s.54,1.2,1.2,1.2h16.97c.66,0,1.2-.54,1.2-1.2s-.54-1.2-1.2-1.2Z"></path>
    <path d="M56.93,83.58h-13.85c-.66,0-1.2.54-1.2,1.2s.54,1.2,1.2,1.2h13.85c.66,0,1.2-.54,1.2-1.2s-.54-1.2-1.2-1.2Z"></path>
    <path d="M49.41,90.61c2.27,0,4.12-1.35,4.12-3.02h-8.24c0,1.67,1.84,3.02,4.12,3.02Z"></path>
  </g>
</svg></svg><style>@media (prefers-color-scheme: light) { :root { filter: none; } }
@media (prefers-color-scheme: dark) { :root { filter: none; } }
</style></svg>